<?xml version="1.0" standalone="no"?><!DOCTYPE svg PUBLIC "-//W3C//DTD SVG 1.1//EN" "http://www.w3.org/Graphics/SVG/1.1/DTD/svg11.dtd"><svg t="1595839283339" class="icon" viewBox="0 0 1024 1024" version="1.1" xmlns="http://www.w3.org/2000/svg" p-id="24866" xmlns:xlink="http://www.w3.org/1999/xlink" width="200" height="200"><defs><style type="text/css"></style></defs><path d="M1019.6 757l-33.2-136.4c17.7-31.8 27.8-68.3 27.8-107.3 0-77.9-40.4-146.3-101.1-185.5v-19.3c0-35.2-28.7-64-63.7-64H745c-28.6 0-52.7 19.4-60.7 45.6h-149V106.8c0-12.9-10.5-23.4-23.3-23.4s-23.3 10.5-23.3 23.4v183.4h-149c-7.9-26.3-32-45.6-60.7-45.6H174.6c-35 0-63.7 28.8-63.7 64v19.3C50.1 367.1 9.8 435.4 9.8 513.4c0 39 10.1 75.5 27.8 107.3L4.4 757c-19.3 79.3 29.5 160 108.4 179.3 78.9 19.4 159.2-29.7 178.5-108.9l27.4-112.8c34.6-15.5 64.4-39.8 86.7-70h213.2c22.4 30.2 52.1 54.5 86.7 70l27.4 112.8c19.3 79.3 99.6 128.3 178.5 108.9 78.9-19.3 127.6-100 108.4-179.3zM356.3 523.2c0 6.7-5.4 12.1-12.1 12.1h-65.7c-1.2 0-2.1 1-2.1 2.2v66c0 6.7-5.4 12.1-12.1 12.1h-45.6c-6.6 0-12-5.4-12-12.1v-66c0-1.2-1-2.2-2.2-2.2H139c-6.6 0-12-5.4-12-12.1v-45.8c0-6.7 5.4-12.1 12-12.1h65.7c1.2 0 2.2-1 2.2-2.2v-66c0-6.7 5.4-12.1 12-12.1h45.5c6.6 0 12.1 5.5 12.1 12.1v66c0 1.2 1 2.2 2.1 2.2h65.7c6.7 0 12.1 5.4 12.1 12.1v45.8z m437.4-136.9c21.2 0 38.5 17.3 38.5 38.6s-17.3 38.6-38.5 38.6-38.5-17.3-38.5-38.6 17.3-38.6 38.5-38.6z m-76.2 153.9c-21.2 0-38.5-17.3-38.5-38.6s17.2-38.6 38.5-38.6c21.2 0 38.5 17.3 38.5 38.6-0.1 21.2-17.3 38.6-38.5 38.6z m76.2 76.5c-21.2 0-38.5-17.3-38.5-38.6s17.3-38.6 38.5-38.6 38.5 17.3 38.5 38.6-17.3 38.6-38.5 38.6z m76.2-76.5c-21.2 0-38.4-17.3-38.4-38.6s17.2-38.6 38.4-38.6 38.5 17.3 38.5 38.6c0 21.2-17.3 38.6-38.5 38.6z" fill="" p-id="24867"></path></svg>