<?xml version="1.0" standalone="no"?><!DOCTYPE svg PUBLIC "-//W3C//DTD SVG 1.1//EN" "http://www.w3.org/Graphics/SVG/1.1/DTD/svg11.dtd"><svg t="1595837028348" class="icon" viewBox="0 0 1024 1024" version="1.1" xmlns="http://www.w3.org/2000/svg" p-id="7128" xmlns:xlink="http://www.w3.org/1999/xlink" width="200" height="200"><defs><style type="text/css"></style></defs><path d="M671.513 354.203c-1.506 0.18-3.042 0.271-4.578 0.241h-79.357a39.604 39.604 0 0 1-39.664-39.363H341.283c14.456-36.23 29.635-95.078 0-157.57h206.631a39.604 39.604 0 0 1 39.664-39.363h79.357c1.567 0 3.072 0.12 4.578 0.301l83.514-103.692c12.408-15.36 34.333-19.275 51.319-9.155l198.349 118.148a39.332 39.332 0 0 1 13.583 54.06 39.814 39.814 0 0 1-54.391 13.461L795.293 90.832 706.57 200.91v70.834l88.724 110.017 168.594-100.44a39.814 39.814 0 0 1 54.39 13.523 39.182 39.182 0 0 1-13.582 54L806.345 466.99a39.844 39.844 0 0 1-51.378-9.155l-83.544-103.602h0.06zM286.531 827.096L32.285 399.288c89.748 81.646 217.082 56.74 271.352-15.811l260.871 443.56h181.755c21.895 0 39.634 17.648 39.664 39.452v118.088a39.604 39.604 0 0 1-39.634 39.393h-634.74a39.604 39.604 0 0 1-39.664-39.393V866.489a39.604 39.604 0 0 1 39.663-39.393h174.979zM151.186 86.164C67.853 86.134 0.181 153.324 0 236.356c0.21 83.002 67.823 150.162 151.186 150.132 83.363 0.09 151.066-67.1 151.277-150.132-0.151-83.092-67.853-150.343-151.307-150.252l0.06 0.06z m0 62.974c48.458 0 87.76 39.152 87.76 87.218a87.58 87.58 0 0 1-87.76 87.4c-48.458 0-87.73-39.153-87.73-87.4a87.58 87.58 0 0 1 87.73-87.218z" p-id="7129"></path></svg>