<?xml version="1.0" standalone="no"?><!DOCTYPE svg PUBLIC "-//W3C//DTD SVG 1.1//EN" "http://www.w3.org/Graphics/SVG/1.1/DTD/svg11.dtd"><svg t="1595837104730" class="icon" viewBox="0 0 1024 1024" version="1.1" xmlns="http://www.w3.org/2000/svg" p-id="12873" xmlns:xlink="http://www.w3.org/1999/xlink" width="200" height="200"><defs><style type="text/css"></style></defs><path d="M964.266667 597.333333l-51.2-8.533333c-5.688889-14.222222-8.533333-22.755556-14.222223-34.133333l19.911112-28.444445 19.911111-28.444444v-5.688889l-56.888889-56.888889-5.688889-5.688889h-5.688889l-56.888889 48.355556c-14.222222-5.688889-19.911111-5.688889-34.133333-14.222223l-14.222222-68.266666s0-5.688889-5.688889-5.688889h-85.333334c-5.688889 0-14.222222 5.688889-14.222222 14.222222-5.688889 19.911111-5.688889 39.822222-14.222222 68.266667-14.222222 5.688889-19.911111 5.688889-34.133333 14.222222l-51.2-39.822222-5.688889-5.688889c-5.688889 0-19.911111 5.688889-34.133334 28.444444-14.222222 14.222222-28.444444 28.444444-34.133333 39.822223v5.688888s0 5.688889 5.688889 5.688889c14.222222 19.911111 28.444444 34.133333 36.977778 54.044445-5.688889 14.222222-14.222222 19.911111-14.222223 34.133333l-65.422222 14.222222s-5.688889 0-5.688889 5.688889v91.022222l5.688889 5.688889 65.422222 5.688889c5.688889 14.222222 5.688889 28.444444 14.222223 34.133334l-22.755556 19.911111-28.444444 19.911111v14.222222L540.444444 881.777778l5.688889 5.688889h5.688889l51.2-39.822223c14.222222 5.688889 19.911111 5.688889 34.133334 14.222223l14.222222 68.266666s0 5.688889 5.688889 5.688889h85.333333c5.688889 0 14.222222-5.688889 14.222222-14.222222 5.688889-19.911111 5.688889-39.822222 14.222222-68.266667 14.222222-5.688889 19.911111-5.688889 34.133334-14.222222l51.2 39.822222h5.688889l34.133333-28.444444 34.133333-39.822222v-5.688889s-36.977778-48.355556-48.355555-56.888889c5.688889-14.222222 14.222222-19.911111 14.222222-34.133333l65.422222-14.222223s5.688889 0 5.688889-5.688889V597.333333h-2.844444z m-190.577778 125.155556c-34.133333 34.133333-91.022222 34.133333-122.311111 0-34.133333-34.133333-34.133333-91.022222 0-125.155556 34.133333-34.133333 91.022222-34.133333 122.311111 0 28.444444 34.133333 28.444444 88.177778 0 125.155556zM56.888889 113.777778h870.4v136.533333H56.888889V113.777778z m0 310.044444h347.022222v136.533334H56.888889v-136.533334z m0 304.355556h347.022222v136.533333H56.888889v-136.533333z" p-id="12874"></path></svg>