<?xml version="1.0" standalone="no"?><!DOCTYPE svg PUBLIC "-//W3C//DTD SVG 1.1//EN" "http://www.w3.org/Graphics/SVG/1.1/DTD/svg11.dtd"><svg t="1596184369829" class="icon" viewBox="0 0 1024 1024" version="1.1" xmlns="http://www.w3.org/2000/svg" p-id="4053" xmlns:xlink="http://www.w3.org/1999/xlink" width="200" height="200"><defs><style type="text/css"></style></defs><path d="M680 608h100.198a32 32 0 0 1 27.713 16l147.802 256A32 32 0 0 1 960 896c0 17.673-14.327 32-32 32H96c-17.673 0-32-14.327-32-32a32 32 0 0 1 4.287-16L216.09 624a32 32 0 0 1 27.713-16H344a8 8 0 0 1 8 8v48a8 8 0 0 1-8 8h-81.723L151.426 864h721.148l-110.85-192H680a8 8 0 0 1-8-8v-48a8 8 0 0 1 8-8z m72-269.256c0 53.656-13.144 82.586-53.294 143.587l-180.01 275.423a8 8 0 0 1-13.393 0L325.293 482.33C285.144 421.33 272 392.4 272 338.744 272 204.68 379.451 96 512 96s240 108.68 240 242.744z m-64-0.732C688 239.698 609.202 160 512 160s-176 79.698-176 178.012c0 39.348 9.639 60.564 39.082 105.297L512 652.8l136.918-209.49C678.36 398.575 688 377.36 688 338.011zM512 406.4c-44.183 0-80-35.817-80-80s35.817-80 80-80 80 35.817 80 80-35.817 80-80 80z" p-id="4054"></path></svg>