<?xml version="1.0" standalone="no"?><!DOCTYPE svg PUBLIC "-//W3C//DTD SVG 1.1//EN" "http://www.w3.org/Graphics/SVG/1.1/DTD/svg11.dtd"><svg t="1596184850328" class="icon" viewBox="0 0 1024 1024" version="1.1" xmlns="http://www.w3.org/2000/svg" p-id="5607" xmlns:xlink="http://www.w3.org/1999/xlink" width="200" height="200"><defs><style type="text/css"></style></defs><path d="M383.29630697 481.11111367L239.57718304 481.11111367c-54.37731031 0-98.67283134-44.29552101-98.67283134-98.67283133L140.9043517 238.61190534c0-54.4845634 44.29552101-98.78008442 98.67283134-98.78008442L383.29630697 139.83182092c54.4845634 0 98.78008442 44.29552101 98.78008439 98.78008442l0 143.826377C482.07639136 436.81559264 437.78087034 481.11111367 383.29630697 481.11111367L383.29630697 481.11111367zM239.57718304 193.45835968c-24.77546092 0-45.04629259 20.16357857-45.04629257 45.15354566l0 143.826377c0 24.77546092 20.16357857 45.04629259 45.04629257 45.04629256L383.29630697 427.4845749c24.88271399 0 45.15354566-20.16357857 45.15354563-45.04629256L428.4498526 238.61190534c0-24.88271399-20.27083165-45.15354566-45.15354563-45.15354566L239.57718304 193.45835968 239.57718304 193.45835968zM383.29630697 879.87805599L239.57718304 879.87805599c-54.37731031 0-98.67283134-44.18826797-98.67283134-98.8873375l0-143.7191239c0-54.37731031 44.29552101-98.67283134 98.67283134-98.67283136L383.29630697 538.59876323c54.4845634 0 98.78008442 44.29552101 98.78008439 98.67283136l0 143.7191239C482.07639136 835.68978803 437.78087034 879.87805599 383.29630697 879.87805599L383.29630697 879.87805599zM239.57718304 592.22530201c-24.77546092 0-45.04629259 20.16357857-45.04629257 45.04629258l0 143.7191239c0 24.88271399 20.16357857 45.26079871 45.04629257 45.26079873L383.29630697 826.25151722c24.88271399 0 45.15354566-20.16357857 45.15354563-45.26079873l0-143.7191239c0-24.66820784-20.27083165-45.04629259-45.15354563-45.04629258L239.57718304 592.22530201 239.57718304 592.22530201zM784.31556389 879.87805599l-143.71912392 0c-54.4845634 0-98.67283134-44.18826797-98.67283133-98.8873375l0-143.7191239c0-54.37731031 44.29552101-98.67283134 98.67283133-98.67283136l143.82637699 0c54.4845634 0 98.78008442 44.29552101 98.78008442 98.67283136l0 143.7191239C883.20290138 835.68978803 838.90738036 879.87805599 784.31556389 879.87805599L784.31556389 879.87805599zM640.59643997 592.22530201c-24.77546092 0-45.04629259 20.16357857-45.04629257 45.04629258l0 143.7191239c0 24.88271399 20.16357857 45.26079871 45.04629257 45.26079873l143.71912392 0c24.88271399 0 45.26079871-20.16357857 45.26079872-45.26079873l0-143.7191239c0-24.66820784-20.16357857-45.04629259-45.15354565-45.04629258L640.59643997 592.22530201 640.59643997 592.22530201zM854.99534198 481.11111367L664.19211705 481.11111367c-67.35493271 0-122.26850839-54.91357571-122.26850841-122.48301456L541.92360864 167.82487417c0-67.46218577 54.91357571-122.26850839 122.26850841-122.26850841l190.91047801 0c67.46218577 0 122.37576148 54.80632263 122.37576147 122.26850841L977.47835653 358.62809911C977.47835653 426.19753797 922.56478083 481.11111367 854.99534198 481.11111367L854.99534198 481.11111367zM664.19211705 99.18290452c-37.86033636 0-68.64196964 30.78163325-68.64196965 68.64196965L595.5501474 358.62809911c0 37.96758945 30.78163325 68.85647578 68.64196965 68.85647579l190.80322493 0c37.96758945 0 68.85647578-30.88888633 68.85647579-68.85647579L923.85181777 167.82487417c0-37.86033636-30.78163325-68.64196964-68.74922271-68.64196965L664.19211705 99.18290452 664.19211705 99.18290452z" p-id="5608"></path></svg>