<?xml version="1.0" standalone="no"?><!DOCTYPE svg PUBLIC "-//W3C//DTD SVG 1.1//EN" "http://www.w3.org/Graphics/SVG/1.1/DTD/svg11.dtd"><svg t="1595837806404" class="icon" viewBox="0 0 1024 1024" version="1.1" xmlns="http://www.w3.org/2000/svg" p-id="21996" xmlns:xlink="http://www.w3.org/1999/xlink" width="200" height="200"><defs><style type="text/css"></style></defs><path d="M512.003023 1010.862626C236.812677 1010.862626 13.799637 787.788771 13.799637 512.665322 13.799637 237.474977 236.812677 14.461937 512.003023 14.461937c275.128314 0 498.197304 223.01304 498.197304 498.203385C1010.200326 787.788771 787.126471 1010.862626 512.003023 1010.862626L512.003023 1010.862626 512.003023 1010.862626zM887.357789 360.322379c-18.249529-1.815952-45.554493-21.366934-68.85901-51.428058-27.623637-35.738864-39.744176-72.98352-29.433508-88.043882-72.674577-66.921427-169.899174-108.161665-277.12428-108.161665-105.913922 0-201.897882 40.242863-274.255002 105.472401 13.750395 13.00358 1.933934 52.804922-27.427811 90.733146-25.439143 32.931618-55.803129 53.365642-73.735201 51.484009-19.621528 46.932573-30.620627 98.293734-30.620627 152.224961 0 220.888145 181.771585 399.780722 406.100673 399.780722 224.195294 0 406.090943-178.892577 406.090943-399.780722C918.036799 458.676929 907.104596 407.310903 887.357789 360.322379L887.357789 360.322379 887.357789 360.322379zM763.261234 596.77079c-120.661692 0-167.337624 124.096554-167.337624 124.096554l0.997375 156.091613-81.730012 1.559311 0 0.251776-8.186989-0.124064-8.062925 0.124064 0-0.251776-83.417035-1.559311 0.812496-156.091613c0 0-38.242032-124.096554-158.838043-124.096554-75.419791 0-105.358068-0.627616-105.358068-0.627616s-21.494647-34.987184-18.177767-113.663039c174.146532-7.373277 137.652339-120.471948 364.916386-125.845609l0-0.498687c2.813327 0 5.245949 0.251776 8.120092 0.251776 2.818192 0 5.188782-0.251776 8.124957-0.251776l0 0.498687c227.574206 5.31163 197.393883 118.472332 371.607312 125.845609 3.37283 78.67099-18.249529 113.663039-18.249529 113.663039S838.677377 596.77079 763.261234 596.77079L763.261234 596.77079 763.261234 596.77079zM509.626351 391.503726c-81.796909 0-148.028688 56.924567-148.028688 127.156792 0 70.17141 66.29381 127.156792 148.028688 127.156792 81.731229 0 148.095585-56.985383 148.095585-127.156792C657.721936 448.428293 591.42326 391.503726 509.626351 391.503726L509.626351 391.503726 509.626351 391.503726zM509.565535 612.891774c-60.611206 0-109.72949-42.181663-109.72949-94.231256s49.118284-94.292071 109.72949-94.292071 109.728273 42.242478 109.728273 94.292071C619.29016 570.710112 570.176741 612.891774 509.565535 612.891774L509.565535 612.891774 509.565535 612.891774zM510.064223 457.303714" p-id="21997"></path></svg>