<?xml version="1.0" standalone="no"?><!DOCTYPE svg PUBLIC "-//W3C//DTD SVG 1.1//EN" "http://www.w3.org/Graphics/SVG/1.1/DTD/svg11.dtd"><svg t="1595837368141" class="icon" viewBox="0 0 1024 1024" version="1.1" xmlns="http://www.w3.org/2000/svg" p-id="18247" xmlns:xlink="http://www.w3.org/1999/xlink" width="200" height="200"><defs><style type="text/css"></style></defs><path d="M496.64 76.8c-240.128 0-435.2 195.584-435.2 435.2 0 240.128 195.584 435.2 435.2 435.2 240.128 0 435.2-195.072 435.2-435.2-0.512-240.128-196.096-435.2-435.2-435.2zM171.008 396.8c15.872-51.2 45.056-98.816 82.944-138.24 59.904-61.44 147.968-96.768 243.2-96.768s183.296 35.328 243.2 96.768c37.376 38.4 66.048 86.016 82.944 138.24 0.512 3.072 0.512 5.12 0.512 6.144H170.496c0-0.512 0-3.072 0.512-6.144z m82.432 363.008c-49.664-51.2-82.944-115.712-95.232-186.368v-0.512c-0.512-3.072-0.512-5.12-0.512-6.656 0.512-0.512 2.56-0.512 2.56 0h1.536c26.624-0.512 57.344-0.512 86.016 4.608 92.16 17.408 127.488 60.416 144.896 175.104 5.12 34.304 9.216 73.728 12.288 105.984-57.344-17.92-109.568-48.64-151.552-92.16z m244.736-153.6c-32.256 0-58.368-26.112-58.368-58.368 0-32.256 26.112-58.368 58.368-58.368 32.256 0 58.368 26.112 58.368 58.368 0 32.256-26.112 58.368-58.368 58.368z m336.896-32.768c-12.288 70.656-45.056 135.168-95.232 186.368-41.984 43.52-94.208 75.264-151.04 91.136 3.072-32.256 6.656-72.192 12.288-105.984 18.432-114.176 52.736-157.184 144.896-175.104 20.48-4.608 43.008-5.12 63.488-5.12 7.68 0 14.336 0 20.48 0.512h5.12c0 0.512 0 3.072-0.512 6.656v1.536z" fill="#3A3A3A" p-id="18248"></path><path d="M947.712 345.6c-6.656 0-13.824-4.608-15.36-12.288-17.408-81.92-105.984-158.72-106.496-159.744-6.144-5.12-6.656-15.36-1.536-21.504 5.12-6.144 15.36-6.656 21.504-1.536 3.584 3.072 96.768 84.48 116.736 176.64 1.536 8.192-3.584 15.872-11.264 18.432-1.536-1.024-3.072 0-3.584 0zM991.232 278.016c-6.656 0-13.824-4.608-15.36-12.288-9.728-49.152-63.488-101.376-64.512-101.376-6.144-6.144-6.144-15.36 0-21.504 6.144-6.144 15.36-6.144 21.504 0 2.048 2.048 60.416 58.88 72.704 117.248 1.536 8.192-3.584 15.872-11.264 18.432-1.536-0.512-2.048-0.512-3.072-0.512zM197.12 906.24c-3.072 0-6.144-0.512-8.192-3.072-4.608-3.072-104.96-73.728-134.144-164.352-2.048-8.192 1.536-16.896 9.728-18.944 8.192-2.048 16.896 1.536 18.944 9.728 25.088 79.872 121.344 147.456 121.856 147.968 6.656 4.608 8.192 14.336 3.584 21.504-2.56 5.12-7.168 7.168-11.776 7.168z m0 0M112.128 923.136c-3.072 0-6.656-0.512-9.216-3.072-3.072-2.048-66.56-52.736-84.48-109.056-2.048-8.192 1.536-16.896 9.728-18.944 8.192-2.048 16.896 1.536 18.944 9.728 15.36 47.616 73.728 93.696 74.24 94.208 6.656 5.12 7.68 14.336 2.048 21.504-2.048 3.584-6.656 5.632-11.264 5.632z m0 0" fill="#3A3A3A" p-id="18249"></path></svg>