<?xml version="1.0" standalone="no"?><!DOCTYPE svg PUBLIC "-//W3C//DTD SVG 1.1//EN" "http://www.w3.org/Graphics/SVG/1.1/DTD/svg11.dtd"><svg t="1595837221825" class="icon" viewBox="0 0 1024 1024" version="1.1" xmlns="http://www.w3.org/2000/svg" p-id="14882" xmlns:xlink="http://www.w3.org/1999/xlink" width="200" height="200"><defs><style type="text/css"></style></defs><path d="M826.722772 475.716535L846.614173 509.581102 682.862866 605.192063l127.330772 142.142488L325.680378 1024 306.393701 990.135433l442.432504-252.710299-127.024378-141.828032L826.722772 475.716535zM298.330709 266.07874c138.151307 0 249.952756 111.640189 249.952756 249.259339C548.283465 717.815937 298.330709 951.433071 298.330709 951.433071S48.377953 717.815937 48.377953 515.338079C48.377953 377.718929 160.332598 266.07874 298.330709 266.07874z m0 373.816441c69.14822 0 124.895748-55.747528 124.895748-124.557102S367.341858 390.789039 298.330709 390.789039 173.434961 446.528504 173.434961 515.338079c0 68.809575 55.892661 124.557102 124.895748 124.557102zM814.281575 0C903.417953 0 975.622047 72.236346 975.622047 161.235654 975.622047 292.283465 814.281575 443.464567 814.281575 443.464567S653.102362 292.283465 653.102362 161.235654C653.102362 72.236346 725.31452 0 814.281575 0z m0 241.849449a80.541228 80.541228 0 0 0 80.597669-80.613795c0-44.507717-36.106079-80.621858-80.589606-80.621859-44.491591 0-80.597669 36.122205-80.597669 80.621859 0 44.491591 36.106079 80.613795 80.597669 80.613795z" p-id="14883"></path></svg>