<?xml version="1.0" standalone="no"?><!DOCTYPE svg PUBLIC "-//W3C//DTD SVG 1.1//EN" "http://www.w3.org/Graphics/SVG/1.1/DTD/svg11.dtd"><svg t="1596184768649" class="icon" viewBox="0 0 1024 1024" version="1.1" xmlns="http://www.w3.org/2000/svg" p-id="4815" xmlns:xlink="http://www.w3.org/1999/xlink" width="200" height="200"><defs><style type="text/css"></style></defs><path d="M511.326 63.808c-247.545 0-448.221 200.674-448.221 448.22 0 247.547 200.676 448.222 448.221 448.222 247.546 0 448.221-200.674 448.221-448.222 0.001-247.546-200.674-448.22-448.221-448.22z m0 784.387c-185.659 0-336.165-150.506-336.165-336.166 0-185.659 150.506-336.165 336.165-336.165 185.66 0 336.166 150.506 336.166 336.165 0 185.659-150.506 336.166-336.166 336.166z" p-id="4816"></path><path d="M511.326 512.028z m-224.109 0c0 80.067 42.715 154.052 112.055 194.086 69.34 40.033 154.769 40.033 224.11 0 69.34-40.034 112.055-114.019 112.055-194.086 0-123.772-100.337-224.11-224.111-224.11-123.772 0.001-224.109 100.338-224.109 224.11" p-id="4817"></path></svg>